<?xml version="1.0" encoding="UTF-8" standalone="no"?>
<!-- Generator: Adobe Illustrator 26.4.1, SVG Export Plug-In . SVG Version: 6.00 Build 0)  -->

<svg
   version="1.1"
   id="Layer_1"
   x="0px"
   y="0px"
   viewBox="0 0 189 188.9999"
   xml:space="preserve"
   sodipodi:docname="logo.svg"
   inkscape:version="1.4.2 (1:1.4.2+202505120737+ebf0e940d0)"
   width="189"
   height="189"
   inkscape:export-filename="icon-192.webp"
   inkscape:export-xdpi="110.82983"
   inkscape:export-ydpi="110.82983"
   xmlns:inkscape="http://www.inkscape.org/namespaces/inkscape"
   xmlns:sodipodi="http://sodipodi.sourceforge.net/DTD/sodipodi-0.dtd"
   xmlns="http://www.w3.org/2000/svg"
   xmlns:svg="http://www.w3.org/2000/svg"><defs
   id="defs54" /><sodipodi:namedview
   id="namedview54"
   pagecolor="#ffffff"
   bordercolor="#000000"
   borderopacity="0.25"
   inkscape:showpageshadow="2"
   inkscape:pageopacity="0.0"
   inkscape:pagecheckerboard="0"
   inkscape:deskcolor="#d1d1d1"
   inkscape:zoom="1.5875841"
   inkscape:cx="84.090036"
   inkscape:cy="70.232502"
   inkscape:window-width="1870"
   inkscape:window-height="1011"
   inkscape:window-x="1920"
   inkscape:window-y="32"
   inkscape:window-maximized="1"
   inkscape:current-layer="Layer_1"
   showgrid="true"><inkscape:grid
     id="grid1"
     units="px"
     originx="0"
     originy="0"
     spacingx="1"
     spacingy="0.99999947"
     empcolor="#0099e5"
     empopacity="0.30196078"
     color="#0099e5"
     opacity="0.14902"
     empspacing="5"
     enabled="true"
     visible="true" /><inkscape:grid
     type="modular"
     id="grid2"
     units="px"
     originx="0"
     originy="0"
     spacingx="151.1811"
     spacingy="151.18102"
     empcolor="#0047cb"
     empopacity="0.30196078"
     color="#0099e5"
     opacity="0.14902"
     empspacing="0"
     marginx="0"
     marginy="0"
     gapx="37.795276"
     gapy="37.795256"
     enabled="false"
     visible="true" /><inkscape:grid
     id="grid3"
     units="px"
     originx="0"
     originy="0"
     spacingx="1"
     spacingy="0.99999947"
     empcolor="#0099e5"
     empopacity="0.30196078"
     color="#0099e5"
     opacity="0.14902"
     empspacing="5"
     enabled="false"
     visible="true" /></sodipodi:namedview>
<style
   type="text/css"
   id="style1">
	.st0{fill:#FFEFC0;}
	.st1{fill:#FBD873;}
	.st2{fill:#CE3045;}
	.st3{fill:#8B0037;}
	.st4{fill:#F48473;}
	.st5{fill:#782A33;}
	.st6{fill:#B3D46A;}
	.st7{fill:#3D111F;}
	.st8{fill:#D55B55;}
	.st9{fill:#8FB43F;}
</style>








































<rect
   style="fill:#fff6d5;stroke-width:0.99829"
   id="rect3"
   width="188.98108"
   height="188.9601"
   x="-1.9375179e-08"
   y="-3.8750358e-08"
   ry="0" /><polygon
   class="st3"
   points=""
   id="polygon45"
   transform="translate(-43.490983,-31.313082)" />








<g
   id="g3"
   transform="translate(-204.90842,2.0171642)"><g
     id="g6"
     transform="translate(172.71182,-32.602723)">
	<path
   class="st2"
   d="m 89.9,97.2 c 0,0 0,0 0,0 -3.2,-2.7 -7,-4.9 -11.1,-6.6 -9.2,3.4 -15.8,12.3 -16,22.6 9.3,-2.6 17.7,-7.4 25,-14.3 0.2,-0.2 1,-0.9 2.1,-1.7 z"
   id="path3" />
	<path
   class="st2"
   d="m 102.4,89 c -0.9,0.5 -2,1 -3,1.7 1.1,-0.7 2.1,-1.2 3,-1.7 z"
   id="path4" />
	<path
   class="st2"
   d="m 160.8,124.9 c -10.2,-1.1 -18.3,-6.4 -25.3,-13.6 -1.2,-1.3 -1.9,-1.8 -3.3,0 -9.6,13.1 -34.4,35.9 -69.5,17.8 v 36.7 c 0,13.6 11,24.6 24.6,24.6 h 79.4 c 13.6,0 24.6,-11 24.6,-24.6 v -49.3 c -10.2,7.5 -22.6,9.3 -30.5,8.4 z"
   id="path5" />
	<path
   class="st2"
   d="m 182.4,94.6 c -4.4,4.7 -8.8,7.2 -10.3,8 4.7,2.9 12.8,5 18.9,6.2 -1.2,-5.7 -4.3,-10.7 -8.6,-14.2 z"
   id="path6" />
</g><path
     class="st3"
     d="m 326.01182,91.697275 h -8.8 c -1.3,0 -2.3,1 -2.3,2.3 v 8.799995 c 0,1.3 1,2.3 2.3,2.3 h 8.8 c 1.3,0 2.3,-1 2.3,-2.3 v -8.799995 c 0,-1.3 -1,-2.3 -2.3,-2.3 z"
     id="path7" /><path
     class="st3"
     d="m 265.51182,110.39727 h -8.8 c -1.3,0 -2.3,1 -2.3,2.3 v 8.8 c 0,1.3 1,2.3 2.3,2.3 h 8.8 c 1.3,0 2.3,-1 2.3,-2.3 v -8.8 c 0,-1.3 -1,-2.3 -2.3,-2.3 z"
     id="path8" /><path
     class="st3"
     d="m 285.61182,110.39727 h -8.8 c -1.3,0 -2.3,1 -2.3,2.3 v 8.8 c 0,1.3 1,2.3 2.3,2.3 h 8.8 c 1.3,0 2.3,-1 2.3,-2.3 v -8.8 c 0.1,-1.3 -1,-2.3 -2.3,-2.3 z"
     id="path9" /><path
     class="st3"
     d="m 305.81181,110.39727 h -8.79999 c -1.3,0 -2.3,1 -2.3,2.3 v 8.8 c 0,1.3 1,2.3 2.3,2.3 h 8.79999 c 1.3,0 2.3,-1 2.3,-2.3 v -8.8 c 0,-1.3 -1,-2.3 -2.3,-2.3 z"
     id="path10" /><path
     class="st3"
     d="m 305.81181,91.697275 h -8.79999 c -1.3,0 -2.3,1 -2.3,2.3 v 8.799995 c 0,1.3 1,2.3 2.3,2.3 h 8.79999 c 1.3,0 2.3,-1 2.3,-2.3 v -8.799995 c 0,-1.3 -1,-2.3 -2.3,-2.3 z"
     id="path11" /><path
     class="st3"
     d="m 326.01182,110.39727 h -8.8 c -1.3,0 -2.3,1 -2.3,2.3 v 8.8 c 0,1.3 1,2.3 2.3,2.3 h 8.8 c 1.3,0 2.3,-1 2.3,-2.3 v -8.8 c 0,-1.3 -1,-2.3 -2.3,-2.3 z"
     id="path12" /><path
     class="st3"
     d="m 265.51182,129.09727 h -8.8 c -1.3,0 -2.3,1 -2.3,2.3 v 8.8 c 0,1.3 1,2.3 2.3,2.3 h 8.8 c 1.3,0 2.3,-1 2.3,-2.3 v -8.8 c 0,-1.3 -1,-2.3 -2.3,-2.3 z"
     id="path13" /><path
     class="st3"
     d="m 285.61182,129.09727 h -8.8 c -1.3,0 -2.3,1 -2.3,2.3 v 8.8 c 0,1.3 1,2.3 2.3,2.3 h 8.8 c 1.3,0 2.3,-1 2.3,-2.3 v -8.8 c 0.1,-1.3 -1,-2.3 -2.3,-2.3 z"
     id="path14" /><path
     class="st3"
     d="m 305.81181,129.09727 h -8.79999 c -1.3,0 -2.3,1 -2.3,2.3 v 8.8 c 0,1.3 1,2.3 2.3,2.3 h 8.79999 c 1.3,0 2.3,-1 2.3,-2.3 v -8.8 c 0,-1.3 -1,-2.3 -2.3,-2.3 z"
     id="path15" /><path
     class="st3"
     d="m 326.01182,129.09727 h -8.8 c -1.3,0 -2.3,1 -2.3,2.3 v 8.8 c 0,1.3 1,2.3 2.3,2.3 h 8.8 c 1.3,0 2.3,-1 2.3,-2.3 v -8.8 c 0,-1.3 -1,-2.3 -2.3,-2.3 z"
     id="path16" /><path
     class="st3"
     d="m 346.11182,110.39727 h -8.8 c -1.3,0 -2.3,1 -2.3,2.3 v 8.8 c 0,1.3 1,2.3 2.3,2.3 h 8.8 c 1.3,0 2.3,-1 2.3,-2.3 v -8.8 c 0.1,-1.3 -1,-2.3 -2.3,-2.3 z"
     id="path17" /><path
     class="st4"
     d="m 325.01182,90.697275 h -8.8 c -1.3,0 -2.3,1 -2.3,2.3 v 8.799995 c 0,1.3 1,2.3 2.3,2.3 h 8.8 c 1.3,0 2.3,-1 2.3,-2.3 v -8.799995 c 0,-1.3 -1,-2.3 -2.3,-2.3 z"
     id="path18" /><path
     class="st4"
     d="m 264.51182,109.39727 h -8.8 c -1.3,0 -2.3,1 -2.3,2.3 v 8.8 c 0,1.3 1,2.3 2.3,2.3 h 8.8 c 1.3,0 2.3,-1 2.3,-2.3 v -8.8 c 0,-1.3 -1,-2.3 -2.3,-2.3 z"
     id="path19" /><path
     class="st4"
     d="m 284.61182,109.39727 h -8.8 c -1.3,0 -2.3,1 -2.3,2.3 v 8.8 c 0,1.3 1,2.3 2.3,2.3 h 8.8 c 1.3,0 2.3,-1 2.3,-2.3 v -8.8 c 0.1,-1.3 -1,-2.3 -2.3,-2.3 z"
     id="path20" /><path
     class="st4"
     d="m 304.81181,109.39727 h -8.79999 c -1.3,0 -2.3,1 -2.3,2.3 v 8.8 c 0,1.3 1,2.3 2.3,2.3 h 8.79999 c 1.3,0 2.3,-1 2.3,-2.3 v -8.8 c 0,-1.3 -1,-2.3 -2.3,-2.3 z"
     id="path21" /><path
     class="st4"
     d="m 304.81181,90.697275 h -8.79999 c -1.3,0 -2.3,1 -2.3,2.3 v 8.799995 c 0,1.3 1,2.3 2.3,2.3 h 8.79999 c 1.3,0 2.3,-1 2.3,-2.3 v -8.799995 c 0,-1.3 -1,-2.3 -2.3,-2.3 z"
     id="path22" /><path
     class="st4"
     d="m 325.01182,109.39727 h -8.8 c -1.3,0 -2.3,1 -2.3,2.3 v 8.8 c 0,1.3 1,2.3 2.3,2.3 h 8.8 c 1.3,0 2.3,-1 2.3,-2.3 v -8.8 c 0,-1.3 -1,-2.3 -2.3,-2.3 z"
     id="path23" /><path
     class="st4"
     d="m 264.51182,128.09727 h -8.8 c -1.3,0 -2.3,1 -2.3,2.3 v 8.8 c 0,1.3 1,2.3 2.3,2.3 h 8.8 c 1.3,0 2.3,-1 2.3,-2.3 v -8.8 c 0,-1.3 -1,-2.3 -2.3,-2.3 z"
     id="path24" /><path
     class="st4"
     d="m 284.61182,128.09727 h -8.8 c -1.3,0 -2.3,1 -2.3,2.3 v 8.8 c 0,1.3 1,2.3 2.3,2.3 h 8.8 c 1.3,0 2.3,-1 2.3,-2.3 v -8.8 c 0.1,-1.3 -1,-2.3 -2.3,-2.3 z"
     id="path25" /><path
     class="st4"
     d="m 304.81181,128.09727 h -8.79999 c -1.3,0 -2.3,1 -2.3,2.3 v 8.8 c 0,1.3 1,2.3 2.3,2.3 h 8.79999 c 1.3,0 2.3,-1 2.3,-2.3 v -8.8 c 0,-1.3 -1,-2.3 -2.3,-2.3 z"
     id="path26" /><path
     class="st4"
     d="m 325.01182,128.09727 h -8.8 c -1.3,0 -2.3,1 -2.3,2.3 v 8.8 c 0,1.3 1,2.3 2.3,2.3 h 8.8 c 1.3,0 2.3,-1 2.3,-2.3 v -8.8 c 0,-1.3 -1,-2.3 -2.3,-2.3 z"
     id="path27" /><path
     class="st5"
     d="m 345.11182,109.39727 h -8.8 c -1.3,0 -2.3,1 -2.3,2.3 v 8.8 c 0,1.3 1,2.3 2.3,2.3 h 8.8 c 1.3,0 2.3,-1 2.3,-2.3 v -8.8 c 0.1,-1.3 -1,-2.3 -2.3,-2.3 z"
     id="path28" /><path
     class="st6"
     d="m 216.51182,83.297277 c -0.1,0 -0.1,-0.1 -0.2,-0.1 -0.2,-0.2 -0.1,-0.4 0.1,-0.4 2.6,-0.1 5.2,0 7.8,-0.2 14,-1.2 26.1,-6.7 36.3,-16.3 0.8,-0.8 11.1,-8.6 16.1,-10.5 9.2,-3.5 18,-2.7 26,3.3 1.1,0.9 1.4,1.4 0.1,2.7 -10.4,10.1 -22.1,18 -35.9,22.4 -10.7,3.4 -21.6,4.599998 -32.9,3 -5.9,-0.8 -11.7,-2.2 -17.4,-3.9 z"
     id="path29" /><path
     class="st6"
     d="m 371.21182,77.397277 c 0,0 -4.5,1.3 -6.8,1.9 -9.3,2.4 -18.7,1.9 -27.9,-0.2 -6.2,-1.4 -12,-4 -17.4,-7.4 -4.5,-2.9 -8.80001,-6.2 -12.70001,-9.8 -1.3,-1.2 -1.1,-1.9 0.1,-2.8 3.9,-2.6 7.90001,-4.3 12.70001,-3.8 7.7,0.7 13.6,4.9 19.1,9.8 2,1.8 4,3.6 6.4,4.9 7.7,4.6 23.9,7.2 26.5,7.4 z"
     id="path30" /><path
     class="st1"
     d="m 330.61182,14.197277 c -7.3,11.5 -12.7,23.8 -16.5,36.8 -0.2,0.7 -0.4,1.4 -0.6,2.5 0.6,-0.4 1.1,-0.9 1.5,-1.3 0,-0.1 0,-0.2 0.1,-0.2 3.8,-13 9.2,-25.4 16.5,-36.8 0.8,-1.3 0.6,-1.9 -0.5,-2.5 0,0.4 -0.1,0.9 -0.5,1.5 z"
     id="path31" /><path
     class="st3"
     d="m 300.21182,51.997277 c -0.2,-0.3 -0.4,-0.5 -0.6,-0.7 -0.2,-0.2 -0.4,-0.4 -0.6,-0.6 0.3,0.5 0.7,1 1.2,1.3 z"
     id="path32" /><path
     class="st5"
     d="m 334.21182,92.397275 c -0.1,0.2 -0.1,0.4 -0.1,0.6 v 8.799995 c 0,1.3 1,2.3 2.3,2.3 h 8.8 c 1.3,0 2.3,-1 2.3,-2.3 v -8.799995 c 0,-0.6 -0.2,-1.2 -0.6,-1.6 -4.1,1 -8.3,1.4 -12.7,1 z"
     id="path33" /><path
     class="st7"
     d="m 347.41182,92.497275 c -0.1,-0.4 -0.3,-0.8 -0.6,-1.1 -4.1,1 -8.3,1.4 -12.7,1 -0.1,0.2 -0.1,0.4 -0.1,0.6 v 0.3 c 0.2,0 0.3,0 0.5,0.1 4.5,0.4 8.8,0.1 12.9,-0.9 z"
     id="path34" /><path
     class="st8"
     d="m 325.01182,90.697275 h -0.5 c 0.7,0.3 1.5,0.6 2.3,0.9 -0.4,-0.6 -1.1,-0.9 -1.8,-0.9 z"
     id="path35" /><g
     id="g36"
     transform="translate(172.71182,-32.602723)">
	<path
   class="st1"
   d="M 62.8,129.7 V 129 c -5.6,-2.8 -12,-7.2 -18.3,-12.5 0,0.1 5.9,6.9 18.3,13.2 z"
   id="path36" />
</g><g
     id="g39"
     transform="translate(-31.838057,-30.604988)">
	<path
   class="st3"
   d="m 340.14987,109.30226 c -1.2,-1.3 -1.9,-1.8 -3.3,0 -5,6.4 -10.8,11.9 -17.4,16.2 -1.7,1.1 -3.4,2.1 -5.2,3 1.6,-0.8 3.1,-1.7 4.6,-2.6 v 6.4 c 0,1.3 -1,2.3 -2.3,2.3 h -8.8 c -0.4,0 -0.7,-0.1 -1.1,-0.3 0.4,0.7 1.2,1.3 2.1,1.3 h 8.8 c 1.3,0 2.3,-1 2.3,-2.3 v -6.4 c 6.9,-4.3 12.9,-10 18,-16.6 1.2,-1.5 1.8,-1.4 2.8,-0.5 -0.2,-0.2 -0.4,-0.3 -0.5,-0.5 z"
   id="path37" />
	<path
   class="st3"
   d="m 313.94987,128.60226 c -0.8,0.4 -1.6,0.8 -2.5,1.2 0.9,-0.4 1.7,-0.8 2.5,-1.2 z"
   id="path38" />
	<path
   class="st3"
   d="m 311.14987,130.00226 c -1,0.4 -1.9,0.8 -2.9,1.2 0.9,-0.4 1.9,-0.8 2.9,-1.2 z"
   id="path39" />
</g><path
     class="st8"
     d="m 295.51182,90.697275 c -0.7,0.2 -1.4,0.7 -1.7,1.4 0.6,-0.4 1.4,-1.1 1.7,-1.4 z"
     id="path40" /><path
     class="st4"
     d="m 273.51182,101.49728 v 0.2 c 0,1.29999 1,2.29999 2.3,2.29999 h 8.8 c 1.3,0 2.3,-1 2.3,-2.29999 v -6.200005 c -3.9,2.5 -8.4,4.600005 -13.4,6.000005 z"
     id="path41" /><path
     class="st9"
     d="m 216.51182,83.297277 c 0,0 11.5,3.1 17.4,3.9 11.2,1.599998 22.2,0.4 32.9,-3 13.9,-4.4 25.6,-12.3 35.9,-22.4 1.3,-1.2 1,-1.8 -0.1,-2.7 -8,-6 -16.8,-6.9 -26,-3.3 -5,1.9 -13.7,8.8 -13.9,8.8 -8.5,-7.1 -20.5,-10.7 -32,-10.2 -0.6,0 -1.2,0.1 -1.8,0.2 -1.5,0.1 -1,-0.5 -0.4,-1.2 3.7,-3.6 7.7,-6.9 12.1,-9.6 9.5,-5.9 19.7,-9.2 31.1,-7.7 10.7,1.4 19.2,6.9 26.9,14.1 0.8,0.7 1.4,2.3 2.6,1.8 1.1,-0.4 0.7,-2 0.8,-3 1.6,-14.7 5.29999,-28.9 11.2,-42.5000004 0.8,-1.9 1.6,-2.2 3.4,-1.3 4.5,2 8.9,4.1 13.3,6.4000004 1.3,0.7 1.7,1.2 0.8,2.6 -7.3,11.5 -12.7,23.8 -16.5,36.8 -0.2,0.7 -0.4,1.4 -0.6,2.5 1.5,-1.2 2.6,-2.2 3.9,-3.1 5.1,-3.3 11,-4.1 16.8,-3.5 11.7,1.1 22,-1.7 31.5,-9.6 -1.9,22.2 -17.7,30.8 -20.8,32.6 -2.4,-1.3 -4.4,-3.1 -6.4,-4.9 -5.6,-4.8 -11.4,-9.1 -19.1,-9.8 -4.8,-0.4 -8.90001,1.3 -12.70001,3.8 -1.2,0.8 -1.4,1.6 -0.1,2.8 4,3.6 8.20001,6.9 12.70001,9.8 5.4,3.4 11.2,6 17.4,7.4 9.2,2 18.5,2.6 27.9,0.2 2.3,-0.6 6.8,-1.9 6.8,-1.9 -11.1,12.999998 -27.9,15.999998 -37.7,14.899998 -10.2,-1.1 -18.3,-6.399998 -25.30001,-13.599998 -1.2,-1.3 -1.9,-1.8 -3.3,0 -11.49999,15.399998 -43.49999,44.199993 -88.69999,4.7 z"
     id="path42" /><path
     class="st8"
     d="m 273.51182,101.49728 v 0.2 c 0,0.29999 0.2,0.79999 0.2,0.79999 0,0 2.4,-0.6 3.6,-0.99999 3.4,-1.3 6.6,-2.800005 9.6,-4.600005 v -1.4 c -3.9,2.5 -8.4,4.600005 -13.4,6.000005 z"
     id="path43" /><path
     class="st3"
     d="m 273.51182,101.49728 c -9.6,2.69999 -20.9,2.59999 -33.6,-2.900005 -1.5,-0.6 -4.5,-2.1 -4.5,-2.1 v 0.7 c 4.4,2.2 9.1,4.100005 14.1,5.399995 5.6,1.5 14.5,2.3 24.1,0.1 -0.1,-0.3 -0.2,-0.5 -0.2,-0.8 v -0.39999 z"
     id="path44" /><path
     class="st3"
     d="m 308.31181,78.697277 c -0.3,-0.3 -0.6,-0.6 -0.8,-0.8 -0.8,-0.6 -1.4,-0.5 -2.4,0.8 -3.79999,5.1 -9.89999,11.799998 -17.99999,16.799998 v 6.200005 c 0,1.29999 -1,2.29999 -2.3,2.29999 h -8.8 c -0.4,0 -0.7,-0.1 -1.1,-0.3 0.4,0.7 1.2,1.3 2.1,1.3 h 8.8 c 1.3,0 2.3,-1 2.3,-2.3 v -6.399995 c 6.9,-4.3 12.9,-9.999998 17.99999,-16.599998 1.2,-1.5 1.8,-1.4 2.8,-0.5 -0.3,-0.2 -0.5,-0.3 -0.6,-0.5 z"
     id="path45" /><path
     class="st3"
     d="m 342.71182,92.197275 c -2.6,0.3 -5,0.4 -7.1,0.3 2.4,0.1 4.8,0 7.1,-0.3 z"
     id="path46" /><path
     class="st3"
     d="m 334.11182,92.997275 c 0,-0.2 0,-0.4 0.1,-0.6 0.1,0 0.1,0 0.2,0 -0.3,0 -0.5,0 -0.8,-0.1 -0.8,-0.1 -1.6,-0.2 -2.4,-0.4 0,0 0,0 0,0 -0.4,-0.1 -0.8,-0.1 -1.2,-0.2 0,0 0,0 0,0 -0.3,-0.1 -0.6,-0.1 -0.9,-0.2 -0.3,-0.1 -0.6,-0.1 -0.8,-0.2 0,0 0,0 0,0 -0.8,-0.2 -1.7,-0.5 -2.5,-0.8 0,0 0,0 0,0 -0.1,-0.1 -0.3,-0.1 -0.4,-0.2 -0.5,-0.2 -1,-0.4 -1.5,-0.6 -0.2,-0.1 -0.4,-0.1 -0.5,-0.2 0,0 0,0 0,0 -0.5,-0.2 -0.9,-0.4 -1.4,-0.6 -0.1,0 -0.1,-0.1 -0.2,-0.1 0,0 0,0 0,0 -0.5,-0.2 -1,-0.5 -1.4,-0.7 0,0 -0.1,0 -0.1,0 0,0 0,0 0,0 -0.3,-0.199998 -0.6,-0.299998 -0.9,-0.499998 -0.2,-0.1 -0.4,-0.2 -0.6,-0.4 0,0 0,0 0,0 -0.3,-0.2 -0.5,-0.3 -0.8,-0.5 0,0 0,0 0,0 -0.2,-0.1 -0.4,-0.2 -0.5,-0.4 -0.4,-0.3 -0.8,-0.6 -1.3,-0.9 -0.1,-0.1 -0.2,-0.1 -0.3,-0.2 0,0 0,0 0,0 -0.4,-0.3 -0.8,-0.6 -1.2,-0.9 0,0 -0.1,-0.1 -0.1,-0.1 0,0 0,0 0,0 -0.3,-0.2 -0.6,-0.4 -0.9,-0.7 0,0 0,0 0,0 -0.1,0 -0.1,-0.1 -0.2,-0.1 -0.6,-0.5 -1.3,-1.1 -1.90001,-1.6 -0.1,0 -0.1,-0.1 -0.2,-0.1 -0.6,-0.5 -1.1,-1 -1.7,-1.6 6.80001,6.9 14.60001,11.899998 24.40001,13.099998 z"
     id="path47" /><path
     class="st3"
     d="m 364.21182,83.897277 c -5.5,4 -11.6,6.399998 -17.2,7.599998 0.3,0.4 0.6,0.9 0.6,1.5 v 8.799995 c 0,1.3 -1,2.3 -2.3,2.3 h -8.8 c -0.4,0 -0.7,-0.1 -1.1,-0.3 0.4,0.7 1.2,1.3 2.1,1.3 h 8.8 c 1.3,0 2.3,-1 2.3,-2.3 v -8.799995 c 0,-0.6 -0.2,-1.1 -0.6,-1.6 5.5,-1.2 11.3,-3.6 16.3,-7.399998 v -1.1 z"
     id="path48" /><path
     class="st3"
     d="m 254.11182,59.097277 c -0.9,-0.4 -1.7,-0.8 -2.6,-1.1 -0.3,0.1 -0.6,0.2 -0.8,0.3 0.9,0.3 1.8,0.7 2.7,1.1 3.1,1.4 6.3,3.1 9.2,5.2 -1.1,-1.2 -5,-4 -8.5,-5.5 z"
     id="path49" /><path
     class="st3"
     d="m 355.11182,61.997277 c -0.4,0.5 -0.8,0.9 -1.3,1.3 -4.7,4.7 -9,6.6 -9,6.7 0.4,0.3 0.9,0.5 1.3,0.8 1.3,-0.8 5,-2.7 8.9,-6.5 0.4,-0.4 0.8,-0.8 1.2,-1.3 -0.3,-0.3 -0.7,-0.7 -1.1,-1 z"
     id="path50" /><path
     class="st1"
     d="m 251.51182,57.997277 c -6.5,-2.7 -13.4,-3.9 -20.8,-3.6 -0.4,0 -0.8,0.1 -1.2,0.1 -0.6,0.6 -0.9,1.1 0.5,1.1 0.6,-0.1 1.2,-0.1 1.8,-0.2 6.7,-0.3 13.1,0.7 19,2.9 0.2,-0.1 0.4,-0.2 0.7,-0.3 z"
     id="path51" /><path
     class="st1"
     d="m 356.31182,62.997277 c 4.6,-5 9.2,-12.7 10.3,-24.6 -0.4,0.3 -0.8,0.6 -1.2,1 -1.4,10.4 -5.9,17.7 -10.3,22.6 0.4,0.3 0.8,0.7 1.2,1 z"
     id="path52" /><path
     class="st6"
     d="m 216.51182,83.297277 c -0.1,0 -0.1,-0.1 -0.2,-0.1 -0.2,-0.2 -0.1,-0.4 0.1,-0.4 2.6,-0.1 5.2,0 7.8,-0.2 14,-1.2 26.1,-6.7 36.3,-16.3 0.8,-0.8 11.1,-8.6 16.1,-10.5 9.2,-3.5 18,-2.7 26,3.3 1.1,0.9 1.4,1.4 0.1,2.7 -10.4,10.1 -22.1,18 -35.9,22.4 -10.7,3.4 -21.6,4.599998 -32.9,3 -5.9,-0.8 -11.7,-2.2 -17.4,-3.9 z"
     id="path53" /><path
     class="st9"
     d="m 216.51182,83.297277 c 0,0 11.5,3.1 17.4,3.9 11.2,1.599998 22.2,0.4 32.9,-3 13.9,-4.4 25.6,-12.3 35.9,-22.4 1.3,-1.2 1,-1.8 -0.1,-2.7 -8,-6 -16.8,-6.9 -26,-3.3 -5,1.9 -13.7,8.8 -13.9,8.8 -8.5,-7.1 -20.5,-10.7 -32,-10.2 -0.6,0 -1.2,0.1 -1.8,0.2 -1.5,0.1 -1,-0.5 -0.4,-1.2 3.7,-3.6 7.7,-6.9 12.1,-9.6 9.5,-5.9 19.7,-9.2 31.1,-7.7 10.7,1.4 19.2,6.9 26.9,14.1 0.8,0.7 1.4,2.3 2.6,1.8 1.1,-0.4 0.7,-2 0.8,-3 1.6,-14.7 5.29999,-28.9 11.2,-42.5000004 0.8,-1.9 1.6,-2.2 3.4,-1.3 4.5,2 8.9,4.1 13.3,6.4000004 1.3,0.7 1.7,1.2 0.8,2.6 -7.3,11.5 -12.7,23.8 -16.5,36.8 -0.2,0.7 -0.4,1.4 -0.6,2.5 1.5,-1.2 2.6,-2.2 3.9,-3.1 5.1,-3.3 11,-4.1 16.8,-3.5 11.7,1.1 22,-1.7 31.5,-9.6 -1.9,22.2 -17.7,30.8 -20.8,32.6 -2.4,-1.3 -4.4,-3.1 -6.4,-4.9 -5.6,-4.8 -11.4,-9.1 -19.1,-9.8 -4.8,-0.4 -8.90001,1.3 -12.70001,3.8 -1.2,0.8 -1.4,1.6 -0.1,2.8 4,3.6 8.20001,6.9 12.70001,9.8 5.4,3.4 11.2,6 17.4,7.4 9.2,2 18.5,2.6 27.9,0.2 2.3,-0.6 6.8,-1.9 6.8,-1.9 -11.1,12.999998 -27.9,15.999998 -37.7,14.899998 -10.2,-1.1 -18.3,-6.399998 -25.30001,-13.599998 -1.2,-1.3 -1.9,-1.8 -3.3,0 -11.49999,15.399998 -43.49999,44.199993 -88.69999,4.7 z"
     id="path54" /></g>
</svg>
