<?xml version="1.0" encoding="utf-8"?>
<!-- Generator: Adobe Illustrator 26.4.1, SVG Export Plug-In . SVG Version: 6.00 Build 0)  -->
<svg version="1.1" id="Layer_1" xmlns="http://www.w3.org/2000/svg" xmlns:xlink="http://www.w3.org/1999/xlink" x="0px" y="0px"
	 viewBox="0 0 254.9 252.9" style="enable-background:new 0 0 254.9 252.9;" xml:space="preserve">
<style type="text/css">
	.st0{fill:#FFEFC0;}
	.st1{fill:#FBD873;}
	.st2{fill:#CE3045;}
	.st3{fill:#8B0037;}
	.st4{fill:#F48473;}
	.st5{fill:#782A33;}
	.st6{fill:#B3D46A;}
	.st7{fill:#3D111F;}
	.st8{fill:#D55B55;}
	.st9{fill:#8FB43F;}
</style>
<circle class="st0" cx="128.5" cy="126" r="106.6"/>
<g>
	<path class="st1" d="M194.5,114.8c1.5-1.4,2.8-3,4-4.8c-0.8,1.1-1.8,2-2.7,2.9c-0.5,0.5-1,0.9-1.6,1.4l-1-1.6l-1.8-0.6
		c0,0.5,0.1,1,0.1,1.5v52.1c0,13.6-11,24.6-24.6,24.6H87.4c-7.5,0-14.3-3.4-18.8-8.7l40.5,49.1c6.2,1.1,12.6,1.7,19.1,1.7
		c44.2,0,82.1-26.9,98.2-65.2L194.5,114.8z"/>
	<path class="st1" d="M68,181L68,181l0.2,0.2C68.1,181.1,68.1,181.1,68,181z"/>
</g>
<g>
	<path class="st2" d="M89.9,97.2C89.9,97.2,89.9,97.2,89.9,97.2c-3.2-2.7-7-4.9-11.1-6.6c-9.2,3.4-15.8,12.3-16,22.6
		c9.3-2.6,17.7-7.4,25-14.3C88,98.7,88.8,98,89.9,97.2z"/>
	<path class="st2" d="M102.4,89c-0.9,0.5-2,1-3,1.7C100.5,90,101.5,89.5,102.4,89L102.4,89z"/>
	<path class="st2" d="M160.8,124.9c-10.2-1.1-18.3-6.4-25.3-13.6c-1.2-1.3-1.9-1.8-3.3,0c-9.6,13.1-34.4,35.9-69.5,17.8v36.7
		c0,13.6,11,24.6,24.6,24.6h79.4c13.6,0,24.6-11,24.6-24.6v-49.3C181.1,124,168.7,125.8,160.8,124.9z"/>
	<path class="st2" d="M182.4,94.6c-4.4,4.7-8.8,7.2-10.3,8c4.7,2.9,12.8,5,18.9,6.2C189.8,103.1,186.7,98.1,182.4,94.6z"/>
</g>
<path class="st3" d="M153.3,124.3h-8.8c-1.3,0-2.3,1-2.3,2.3v8.8c0,1.3,1,2.3,2.3,2.3h8.8c1.3,0,2.3-1,2.3-2.3v-8.8
	C155.6,125.3,154.6,124.3,153.3,124.3z"/>
<path class="st3" d="M92.8,143H84c-1.3,0-2.3,1-2.3,2.3v8.8c0,1.3,1,2.3,2.3,2.3h8.8c1.3,0,2.3-1,2.3-2.3v-8.8
	C95.1,144,94.1,143,92.8,143z"/>
<path class="st3" d="M112.9,143h-8.8c-1.3,0-2.3,1-2.3,2.3v8.8c0,1.3,1,2.3,2.3,2.3h8.8c1.3,0,2.3-1,2.3-2.3v-8.8
	C115.3,144,114.2,143,112.9,143z"/>
<path class="st3" d="M133.1,143h-8.8c-1.3,0-2.3,1-2.3,2.3v8.8c0,1.3,1,2.3,2.3,2.3h8.8c1.3,0,2.3-1,2.3-2.3v-8.8
	C135.4,144,134.4,143,133.1,143z"/>
<path class="st3" d="M133.1,124.3h-8.8c-1.3,0-2.3,1-2.3,2.3v8.8c0,1.3,1,2.3,2.3,2.3h8.8c1.3,0,2.3-1,2.3-2.3v-8.8
	C135.4,125.3,134.4,124.3,133.1,124.3z"/>
<path class="st3" d="M153.3,143h-8.8c-1.3,0-2.3,1-2.3,2.3v8.8c0,1.3,1,2.3,2.3,2.3h8.8c1.3,0,2.3-1,2.3-2.3v-8.8
	C155.6,144,154.6,143,153.3,143z"/>
<path class="st3" d="M92.8,161.7H84c-1.3,0-2.3,1-2.3,2.3v8.8c0,1.3,1,2.3,2.3,2.3h8.8c1.3,0,2.3-1,2.3-2.3V164
	C95.1,162.7,94.1,161.7,92.8,161.7z"/>
<path class="st3" d="M112.9,161.7h-8.8c-1.3,0-2.3,1-2.3,2.3v8.8c0,1.3,1,2.3,2.3,2.3h8.8c1.3,0,2.3-1,2.3-2.3V164
	C115.3,162.7,114.2,161.7,112.9,161.7z"/>
<path class="st3" d="M133.1,161.7h-8.8c-1.3,0-2.3,1-2.3,2.3v8.8c0,1.3,1,2.3,2.3,2.3h8.8c1.3,0,2.3-1,2.3-2.3V164
	C135.4,162.7,134.4,161.7,133.1,161.7z"/>
<path class="st3" d="M153.3,161.7h-8.8c-1.3,0-2.3,1-2.3,2.3v8.8c0,1.3,1,2.3,2.3,2.3h8.8c1.3,0,2.3-1,2.3-2.3V164
	C155.6,162.7,154.6,161.7,153.3,161.7z"/>
<path class="st3" d="M173.4,143h-8.8c-1.3,0-2.3,1-2.3,2.3v8.8c0,1.3,1,2.3,2.3,2.3h8.8c1.3,0,2.3-1,2.3-2.3v-8.8
	C175.8,144,174.7,143,173.4,143z"/>
<path class="st4" d="M152.3,123.3h-8.8c-1.3,0-2.3,1-2.3,2.3v8.8c0,1.3,1,2.3,2.3,2.3h8.8c1.3,0,2.3-1,2.3-2.3v-8.8
	C154.6,124.3,153.6,123.3,152.3,123.3z"/>
<path class="st4" d="M91.8,142H83c-1.3,0-2.3,1-2.3,2.3v8.8c0,1.3,1,2.3,2.3,2.3h8.8c1.3,0,2.3-1,2.3-2.3v-8.8
	C94.1,143,93.1,142,91.8,142z"/>
<path class="st4" d="M111.9,142h-8.8c-1.3,0-2.3,1-2.3,2.3v8.8c0,1.3,1,2.3,2.3,2.3h8.8c1.3,0,2.3-1,2.3-2.3v-8.8
	C114.3,143,113.2,142,111.9,142z"/>
<path class="st4" d="M132.1,142h-8.8c-1.3,0-2.3,1-2.3,2.3v8.8c0,1.3,1,2.3,2.3,2.3h8.8c1.3,0,2.3-1,2.3-2.3v-8.8
	C134.4,143,133.4,142,132.1,142z"/>
<path class="st4" d="M132.1,123.3h-8.8c-1.3,0-2.3,1-2.3,2.3v8.8c0,1.3,1,2.3,2.3,2.3h8.8c1.3,0,2.3-1,2.3-2.3v-8.8
	C134.4,124.3,133.4,123.3,132.1,123.3z"/>
<path class="st4" d="M152.3,142h-8.8c-1.3,0-2.3,1-2.3,2.3v8.8c0,1.3,1,2.3,2.3,2.3h8.8c1.3,0,2.3-1,2.3-2.3v-8.8
	C154.6,143,153.6,142,152.3,142z"/>
<path class="st4" d="M91.8,160.7H83c-1.3,0-2.3,1-2.3,2.3v8.8c0,1.3,1,2.3,2.3,2.3h8.8c1.3,0,2.3-1,2.3-2.3V163
	C94.1,161.7,93.1,160.7,91.8,160.7z"/>
<path class="st4" d="M111.9,160.7h-8.8c-1.3,0-2.3,1-2.3,2.3v8.8c0,1.3,1,2.3,2.3,2.3h8.8c1.3,0,2.3-1,2.3-2.3V163
	C114.3,161.7,113.2,160.7,111.9,160.7z"/>
<path class="st4" d="M132.1,160.7h-8.8c-1.3,0-2.3,1-2.3,2.3v8.8c0,1.3,1,2.3,2.3,2.3h8.8c1.3,0,2.3-1,2.3-2.3V163
	C134.4,161.7,133.4,160.7,132.1,160.7z"/>
<path class="st4" d="M152.3,160.7h-8.8c-1.3,0-2.3,1-2.3,2.3v8.8c0,1.3,1,2.3,2.3,2.3h8.8c1.3,0,2.3-1,2.3-2.3V163
	C154.6,161.7,153.6,160.7,152.3,160.7z"/>
<path class="st5" d="M172.4,142h-8.8c-1.3,0-2.3,1-2.3,2.3v8.8c0,1.3,1,2.3,2.3,2.3h8.8c1.3,0,2.3-1,2.3-2.3v-8.8
	C174.8,143,173.7,142,172.4,142z"/>
<path class="st6" d="M43.8,115.9c-0.1,0-0.1-0.1-0.2-0.1c-0.2-0.2-0.1-0.4,0.1-0.4c2.6-0.1,5.2,0,7.8-0.2c14-1.2,26.1-6.7,36.3-16.3
	c0.8-0.8,11.1-8.6,16.1-10.5c9.2-3.5,18-2.7,26,3.3c1.1,0.9,1.4,1.4,0.1,2.7c-10.4,10.1-22.1,18-35.9,22.4
	c-10.7,3.4-21.6,4.6-32.9,3C55.3,119,49.5,117.6,43.8,115.9z"/>
<path class="st6" d="M198.5,110c0,0-4.5,1.3-6.8,1.9c-9.3,2.4-18.7,1.9-27.9-0.2c-6.2-1.4-12-4-17.4-7.4c-4.5-2.9-8.8-6.2-12.7-9.8
	c-1.3-1.2-1.1-1.9,0.1-2.8c3.9-2.6,7.9-4.3,12.7-3.8c7.7,0.7,13.6,4.9,19.1,9.8c2,1.8,4,3.6,6.4,4.9
	C179.7,107.2,195.9,109.8,198.5,110z"/>
<path class="st1" d="M157.9,46.8c-7.3,11.5-12.7,23.8-16.5,36.8c-0.2,0.7-0.4,1.4-0.6,2.5c0.6-0.4,1.1-0.9,1.5-1.3
	c0-0.1,0-0.2,0.1-0.2c3.8-13,9.2-25.4,16.5-36.8c0.8-1.3,0.6-1.9-0.5-2.5C158.4,45.7,158.3,46.2,157.9,46.8z"/>
<path class="st3" d="M127.5,84.6c-0.2-0.3-0.4-0.5-0.6-0.7c-0.2-0.2-0.4-0.4-0.6-0.6C126.6,83.8,127,84.3,127.5,84.6z"/>
<path class="st5" d="M161.5,125c-0.1,0.2-0.1,0.4-0.1,0.6v8.8c0,1.3,1,2.3,2.3,2.3h8.8c1.3,0,2.3-1,2.3-2.3v-8.8
	c0-0.6-0.2-1.2-0.6-1.6C170.1,125,165.9,125.4,161.5,125z"/>
<path class="st7" d="M174.7,125.1c-0.1-0.4-0.3-0.8-0.6-1.1c-4.1,1-8.3,1.4-12.7,1c-0.1,0.2-0.1,0.4-0.1,0.6v0.3
	c0.2,0,0.3,0,0.5,0.1C166.3,126.4,170.6,126.1,174.7,125.1z"/>
<path class="st8" d="M152.3,123.3h-0.5c0.7,0.3,1.5,0.6,2.3,0.9C153.7,123.6,153,123.3,152.3,123.3z"/>
<g>
	<path class="st1" d="M62.8,129.7v-0.7c-5.6-2.8-12-7.2-18.3-12.5C44.5,116.6,50.4,123.4,62.8,129.7z"/>
</g>
<g>
	<path class="st3" d="M135.6,111.3c-1.2-1.3-1.9-1.8-3.3,0c-5,6.4-10.8,11.9-17.4,16.2c-1.7,1.1-3.4,2.1-5.2,3
		c1.6-0.8,3.1-1.7,4.6-2.6v6.4c0,1.3-1,2.3-2.3,2.3h-8.8c-0.4,0-0.7-0.1-1.1-0.3c0.4,0.7,1.2,1.3,2.1,1.3h8.8c1.3,0,2.3-1,2.3-2.3
		v-6.4c6.9-4.3,12.9-10,18-16.6c1.2-1.5,1.8-1.4,2.8-0.5C135.9,111.6,135.7,111.5,135.6,111.3z"/>
	<path class="st3" d="M109.4,130.6c-0.8,0.4-1.6,0.8-2.5,1.2C107.8,131.4,108.6,131,109.4,130.6z"/>
	<path class="st3" d="M106.6,132c-1,0.4-1.9,0.8-2.9,1.2C104.6,132.8,105.6,132.4,106.6,132z"/>
</g>
<path class="st8" d="M122.8,123.3c-0.7,0.2-1.4,0.7-1.7,1.4C121.7,124.3,122.5,123.6,122.8,123.3z"/>
<path class="st4" d="M100.8,134.1v0.2c0,1.3,1,2.3,2.3,2.3h8.8c1.3,0,2.3-1,2.3-2.3v-6.2C110.3,130.6,105.8,132.7,100.8,134.1z"/>
<path class="st9" d="M43.8,115.9c0,0,11.5,3.1,17.4,3.9c11.2,1.6,22.2,0.4,32.9-3c13.9-4.4,25.6-12.3,35.9-22.4
	c1.3-1.2,1-1.8-0.1-2.7c-8-6-16.8-6.9-26-3.3c-5,1.9-13.7,8.8-13.9,8.8C81.5,90.1,69.5,86.5,58,87c-0.6,0-1.2,0.1-1.8,0.2
	c-1.5,0.1-1-0.5-0.4-1.2c3.7-3.6,7.7-6.9,12.1-9.6c9.5-5.9,19.7-9.2,31.1-7.7c10.7,1.4,19.2,6.9,26.9,14.1c0.8,0.7,1.4,2.3,2.6,1.8
	c1.1-0.4,0.7-2,0.8-3c1.6-14.7,5.3-28.9,11.2-42.5c0.8-1.9,1.6-2.2,3.4-1.3c4.5,2,8.9,4.1,13.3,6.4c1.3,0.7,1.7,1.2,0.8,2.6
	c-7.3,11.5-12.7,23.8-16.5,36.8c-0.2,0.7-0.4,1.4-0.6,2.5c1.5-1.2,2.6-2.2,3.9-3.1c5.1-3.3,11-4.1,16.8-3.5
	c11.7,1.1,22-1.7,31.5-9.6c-1.9,22.2-17.7,30.8-20.8,32.6c-2.4-1.3-4.4-3.1-6.4-4.9c-5.6-4.8-11.4-9.1-19.1-9.8
	c-4.8-0.4-8.9,1.3-12.7,3.8c-1.2,0.8-1.4,1.6-0.1,2.8c4,3.6,8.2,6.9,12.7,9.8c5.4,3.4,11.2,6,17.4,7.4c9.2,2,18.5,2.6,27.9,0.2
	c2.3-0.6,6.8-1.9,6.8-1.9c-11.1,13-27.9,16-37.7,14.9c-10.2-1.1-18.3-6.4-25.3-13.6c-1.2-1.3-1.9-1.8-3.3,0
	C121,126.6,89,155.4,43.8,115.9z"/>
<path class="st8" d="M100.8,134.1v0.2c0,0.3,0.2,0.8,0.2,0.8s2.4-0.6,3.6-1c3.4-1.3,6.6-2.8,9.6-4.6v-1.4
	C110.3,130.6,105.8,132.7,100.8,134.1z"/>
<path class="st3" d="M100.8,134.1c-9.6,2.7-20.9,2.6-33.6-2.9c-1.5-0.6-4.5-2.1-4.5-2.1v0.7c4.4,2.2,9.1,4.1,14.1,5.4
	c5.6,1.5,14.5,2.3,24.1,0.1c-0.1-0.3-0.2-0.5-0.2-0.8V134.1z"/>
<path class="st3" d="M135.6,111.3c-0.3-0.3-0.6-0.6-0.8-0.8c-0.8-0.6-1.4-0.5-2.4,0.8c-3.8,5.1-9.9,11.8-18,16.8v6.2
	c0,1.3-1,2.3-2.3,2.3h-8.8c-0.4,0-0.7-0.1-1.1-0.3c0.4,0.7,1.2,1.3,2.1,1.3h8.8c1.3,0,2.3-1,2.3-2.3v-6.4c6.9-4.3,12.9-10,18-16.6
	c1.2-1.5,1.8-1.4,2.8-0.5C135.9,111.6,135.7,111.5,135.6,111.3z"/>
<polygon class="st3" points="137,112.7 137,112.7 137,112.7 "/>
<path class="st3" d="M170,124.8c-2.6,0.3-5,0.4-7.1,0.3C165.3,125.2,167.7,125.1,170,124.8z"/>
<path class="st3" d="M161.4,125.6c0-0.2,0-0.4,0.1-0.6c0.1,0,0.1,0,0.2,0c-0.3,0-0.5,0-0.8-0.1c-0.8-0.1-1.6-0.2-2.4-0.4
	c0,0,0,0,0,0c-0.4-0.1-0.8-0.1-1.2-0.2c0,0,0,0,0,0c-0.3-0.1-0.6-0.1-0.9-0.2c-0.3-0.1-0.6-0.1-0.8-0.2c0,0,0,0,0,0
	c-0.8-0.2-1.7-0.5-2.5-0.8c0,0,0,0,0,0c-0.1-0.1-0.3-0.1-0.4-0.2c-0.5-0.2-1-0.4-1.5-0.6c-0.2-0.1-0.4-0.1-0.5-0.2c0,0,0,0,0,0
	c-0.5-0.2-0.9-0.4-1.4-0.6c-0.1,0-0.1-0.1-0.2-0.1c0,0,0,0,0,0c-0.5-0.2-1-0.5-1.4-0.7c0,0-0.1,0-0.1,0c0,0,0,0,0,0
	c-0.3-0.2-0.6-0.3-0.9-0.5c-0.2-0.1-0.4-0.2-0.6-0.4c0,0,0,0,0,0c-0.3-0.2-0.5-0.3-0.8-0.5c0,0,0,0,0,0c-0.2-0.1-0.4-0.2-0.5-0.4
	c-0.4-0.3-0.8-0.6-1.3-0.9c-0.1-0.1-0.2-0.1-0.3-0.2c0,0,0,0,0,0c-0.4-0.3-0.8-0.6-1.2-0.9c0,0-0.1-0.1-0.1-0.1c0,0,0,0,0,0
	c-0.3-0.2-0.6-0.4-0.9-0.7c0,0,0,0,0,0c-0.1,0-0.1-0.1-0.2-0.1c-0.6-0.5-1.3-1.1-1.9-1.6c-0.1,0-0.1-0.1-0.2-0.1
	c-0.6-0.5-1.1-1-1.7-1.6c6.8,6.9,14.6,11.9,24.4,13.1V125.6z"/>
<path class="st3" d="M191.5,116.5c-5.5,4-11.6,6.4-17.2,7.6c0.3,0.4,0.6,0.9,0.6,1.5v8.8c0,1.3-1,2.3-2.3,2.3h-8.8
	c-0.4,0-0.7-0.1-1.1-0.3c0.4,0.7,1.2,1.3,2.1,1.3h8.8c1.3,0,2.3-1,2.3-2.3v-8.8c0-0.6-0.2-1.1-0.6-1.6c5.5-1.2,11.3-3.6,16.3-7.4
	V116.5z"/>
<path class="st3" d="M81.4,91.7c-0.9-0.4-1.7-0.8-2.6-1.1c-0.3,0.1-0.6,0.2-0.8,0.3c0.9,0.3,1.8,0.7,2.7,1.1
	c3.1,1.4,6.3,3.1,9.2,5.2C88.8,96,84.9,93.2,81.4,91.7z"/>
<path class="st3" d="M182.4,94.6c-0.4,0.5-0.8,0.9-1.3,1.3c-4.7,4.7-9,6.6-9,6.7c0.4,0.3,0.9,0.5,1.3,0.8c1.3-0.8,5-2.7,8.9-6.5
	c0.4-0.4,0.8-0.8,1.2-1.3C183.2,95.3,182.8,94.9,182.4,94.6z"/>
<path class="st1" d="M78.8,90.6C72.3,87.9,65.4,86.7,58,87c-0.4,0-0.8,0.1-1.2,0.1c-0.6,0.6-0.9,1.1,0.5,1.1
	c0.6-0.1,1.2-0.1,1.8-0.2c6.7-0.3,13.1,0.7,19,2.9C78.3,90.8,78.5,90.7,78.8,90.6z"/>
<path class="st1" d="M183.6,95.6c4.6-5,9.2-12.7,10.3-24.6c-0.4,0.3-0.8,0.6-1.2,1c-1.4,10.4-5.9,17.7-10.3,22.6
	C182.8,94.9,183.2,95.3,183.6,95.6z"/>
<path class="st6" d="M43.8,115.9c-0.1,0-0.1-0.1-0.2-0.1c-0.2-0.2-0.1-0.4,0.1-0.4c2.6-0.1,5.2,0,7.8-0.2c14-1.2,26.1-6.7,36.3-16.3
	c0.8-0.8,11.1-8.6,16.1-10.5c9.2-3.5,18-2.7,26,3.3c1.1,0.9,1.4,1.4,0.1,2.7c-10.4,10.1-22.1,18-35.9,22.4
	c-10.7,3.4-21.6,4.6-32.9,3C55.3,119,49.5,117.6,43.8,115.9z"/>
<path class="st9" d="M43.8,115.9c0,0,11.5,3.1,17.4,3.9c11.2,1.6,22.2,0.4,32.9-3c13.9-4.4,25.6-12.3,35.9-22.4
	c1.3-1.2,1-1.8-0.1-2.7c-8-6-16.8-6.9-26-3.3c-5,1.9-13.7,8.8-13.9,8.8C81.5,90.1,69.5,86.5,58,87c-0.6,0-1.2,0.1-1.8,0.2
	c-1.5,0.1-1-0.5-0.4-1.2c3.7-3.6,7.7-6.9,12.1-9.6c9.5-5.9,19.7-9.2,31.1-7.7c10.7,1.4,19.2,6.9,26.9,14.1c0.8,0.7,1.4,2.3,2.6,1.8
	c1.1-0.4,0.7-2,0.8-3c1.6-14.7,5.3-28.9,11.2-42.5c0.8-1.9,1.6-2.2,3.4-1.3c4.5,2,8.9,4.1,13.3,6.4c1.3,0.7,1.7,1.2,0.8,2.6
	c-7.3,11.5-12.7,23.8-16.5,36.8c-0.2,0.7-0.4,1.4-0.6,2.5c1.5-1.2,2.6-2.2,3.9-3.1c5.1-3.3,11-4.1,16.8-3.5
	c11.7,1.1,22-1.7,31.5-9.6c-1.9,22.2-17.7,30.8-20.8,32.6c-2.4-1.3-4.4-3.1-6.4-4.9c-5.6-4.8-11.4-9.1-19.1-9.8
	c-4.8-0.4-8.9,1.3-12.7,3.8c-1.2,0.8-1.4,1.6-0.1,2.8c4,3.6,8.2,6.9,12.7,9.8c5.4,3.4,11.2,6,17.4,7.4c9.2,2,18.5,2.6,27.9,0.2
	c2.3-0.6,6.8-1.9,6.8-1.9c-11.1,13-27.9,16-37.7,14.9c-10.2-1.1-18.3-6.4-25.3-13.6c-1.2-1.3-1.9-1.8-3.3,0
	C121,126.6,89,155.4,43.8,115.9z"/>
</svg>
